<svg width="25" height="25" viewBox="0 0 25 25" fill="none" xmlns="http://www.w3.org/2000/svg">
<path d="M11.4505 7.15726C11.4506 6.88927 11.668 6.67202 11.936 6.67181C12.2042 6.67181 12.4221 6.88976 12.4221 7.15795L12.4207 11.5332H16.7973C17.0655 11.5332 17.2828 11.7504 17.2828 12.0186C17.2828 12.2868 17.0655 12.5041 16.7973 12.5041H12.4207L12.4214 16.88C12.4213 17.1481 12.2041 17.3654 11.936 17.3654C11.668 17.3652 11.4506 17.148 11.4505 16.88L11.4498 12.5041L7.07531 12.5048C6.80712 12.5048 6.58917 12.2868 6.58917 12.0186C6.58917 11.7506 6.80668 11.5335 7.07462 11.5332H11.4498L11.4505 7.15726Z" fill="white"/>
</svg>
