<svg width="20" height="20" viewBox="12 6 22 22" fill="none" xmlns="http://www.w3.org/2000/svg">
<path d="M23.8184 9H18C16.3431 9 15 10.3431 15 12V22C15 23.6569 16.3431 25 18 25H28C29.6569 25 31 23.6569 31 22V16.1816H32V22C32 24.14 30.3194 25.8879 28.2061 25.9951L28 26H18L17.7939 25.9951C15.7488 25.8913 14.1087 24.2512 14.0049 22.2061L14 22V12C14 9.79086 15.7909 8 18 8H23.8184V9Z" fill="#1D2441"/>
<line x1="31.1" y1="8.70711" x2="21.0071" y2="18.8" stroke="#1D2441" stroke-linecap="round"/>
</svg>
