<svg width="30" height="30" viewBox="0 0 30 30" fill="none" xmlns="http://www.w3.org/2000/svg">
<path d="M25.5328 19.1351L23.0488 17.8931C22.8256 17.7815 22.5565 17.8724 22.4449 18.0938C22.3333 18.317 22.4242 18.5861 22.6465 18.6977L24.325 19.5374L14.5312 24.4343L4.73746 19.5374L6.41595 18.6977C6.63827 18.5861 6.72915 18.317 6.61757 18.0938C6.50595 17.8724 6.23595 17.7815 6.01368 17.8931L3.52963 19.1351C3.37753 19.2116 3.28125 19.3673 3.28125 19.5374C3.28125 19.7075 3.37753 19.8632 3.52963 19.9397L14.3296 25.3397C14.3935 25.3712 14.4619 25.3874 14.5312 25.3874C14.6005 25.3874 14.6689 25.3712 14.7328 25.3397L25.5328 19.9397C25.6849 19.8632 25.7812 19.7075 25.7812 19.5374C25.7812 19.3673 25.6849 19.2116 25.5328 19.1351Z" fill="#1D2441"/>
<path d="M25.5328 14.6357L23.0488 13.3937C22.8256 13.2821 22.5565 13.3721 22.4449 13.5944C22.3333 13.8176 22.4242 14.0867 22.6465 14.1983L24.325 15.038L14.5312 19.9349L4.73746 15.038L6.41595 14.1983C6.63827 14.0867 6.72915 13.8176 6.61757 13.5944C6.50595 13.3721 6.23595 13.2821 6.01368 13.3937L3.52963 14.6357C3.37753 14.7122 3.28125 14.8679 3.28125 15.038C3.28125 15.2081 3.37753 15.3638 3.52963 15.4403L14.3296 20.8403C14.3935 20.8718 14.4619 20.888 14.5312 20.888C14.6005 20.888 14.6689 20.8718 14.7328 20.8403L25.5328 15.4403C25.6849 15.3638 25.7812 15.2081 25.7812 15.038C25.7812 14.8679 25.6849 14.7122 25.5328 14.6357Z" fill="#1D2441"/>
<path fill-rule="evenodd" clip-rule="evenodd" d="M14.3296 16.34L3.52963 10.94C3.37753 10.8635 3.28125 10.7079 3.28125 10.5378C3.28125 10.3677 3.37753 10.212 3.52967 10.1355L14.3297 4.73542C14.4566 4.67153 14.606 4.67153 14.7329 4.73542L25.5329 10.1354C25.685 10.2119 25.7812 10.3676 25.7812 10.5377C25.7812 10.7078 25.6849 10.8635 25.5328 10.94L14.7328 16.34C14.6689 16.3715 14.6005 16.3877 14.5312 16.3877C14.4619 16.3877 14.3935 16.3715 14.3296 16.34ZM24.3249 10.5378L14.5312 5.64091L4.73741 10.5378L14.5312 15.4347L24.3249 10.5378Z" fill="#1D2441"/>
</svg>
