<svg width="31" height="32" viewBox="0 0 31 32" fill="none" xmlns="http://www.w3.org/2000/svg">
<path d="M17.6761 6C17.8326 6.00007 17.9822 6.0669 18.0922 6.18359L22.806 11.1826C22.9112 11.2942 22.9789 11.4546 22.9789 11.625V25.458C22.9789 26.4918 22.1859 27.3329 21.2113 27.333H9.42712C8.45248 27.333 7.65955 26.4919 7.65955 25.458V7.875C7.65955 6.84113 8.45248 6.00001 9.42712 6H17.6761ZM9.42712 7.25C9.10225 7.25001 8.83826 7.53038 8.83826 7.875V25.458C8.83826 25.8026 9.10225 26.083 9.42712 26.083H21.2113C21.5361 26.0829 21.8002 25.8026 21.8002 25.458V12.25H18.8539C17.8794 12.2498 17.0863 11.4087 17.0863 10.375V7.25H9.42712ZM16.0853 22C16.3672 22.0002 16.5961 22.2989 16.5961 22.667C16.5959 23.0349 16.3671 23.3328 16.0853 23.333H12.0004C11.7184 23.333 11.4898 23.035 11.4896 22.667C11.4896 22.2988 11.7184 22 12.0004 22H16.0853ZM18.6019 19.333C18.904 19.3331 19.1488 19.6319 19.1488 20C19.1488 20.3681 18.904 20.6669 18.6019 20.667H12.0365C11.7343 20.667 11.4896 20.3682 11.4896 20C11.4896 19.6318 11.7343 19.333 12.0365 19.333H18.6019ZM18.6019 16.667C18.9039 16.6671 19.1487 16.965 19.1488 17.333C19.1488 17.7011 18.904 17.9999 18.6019 18H12.0365C11.7343 18 11.4896 17.7012 11.4896 17.333C11.4898 16.965 11.7344 16.667 12.0365 16.667H18.6019ZM18.6019 14C18.904 14.0001 19.1488 14.2989 19.1488 14.667C19.1487 15.035 18.9039 15.3329 18.6019 15.333H12.0365C11.7344 15.333 11.4898 15.035 11.4896 14.667C11.4896 14.2988 11.7343 14 12.0365 14H18.6019ZM18.265 10.375C18.265 10.7195 18.5292 10.9998 18.8539 11H20.9672L18.265 8.13379V10.375Z" fill="white"/>
</svg>
