<svg width="20" height="20" viewBox="11 5 22 24" fill="none" xmlns="http://www.w3.org/2000/svg">
<path d="M22.5 6.53125C23.0005 6.53125 23.4062 6.93699 23.4062 7.4375V8.72656C26.6442 9.19134 29.1297 12.1084 29.1299 15.626V20.7275L30.1875 22.6777C30.3907 23.0494 30.3902 23.5064 30.1855 23.8799C29.975 24.2638 29.5776 24.5047 29.1445 24.5039H25.9141L25.8916 24.5742C25.4014 25.9841 24.1452 26.9755 22.6836 27.0527L22.5 27.0576C20.9605 27.0576 19.6181 26.043 19.1074 24.5742L19.085 24.5039H15.8545C15.4914 24.5039 15.1526 24.3346 14.9287 24.0518L14.8506 23.9404C14.6386 23.6009 14.6021 23.1762 14.7529 22.8047L15.8691 20.0547V15.626C15.8693 12.1079 18.3552 9.19072 21.5938 8.72656V7.4375C21.5938 6.93699 21.9995 6.53125 22.5 6.53125ZM22.5 9.83887C19.4963 9.83887 17.048 12.4231 17.0479 15.626V20.2861L17.0039 20.3926L15.8447 23.248C15.8357 23.2704 15.8382 23.2981 15.8496 23.3164C15.8545 23.3243 15.8563 23.326 15.8545 23.3262H20.0264L20.1182 23.8037C20.3517 25.0172 21.3514 25.8799 22.5 25.8799C23.6484 25.8796 24.6474 25.017 24.8809 23.8037L24.9736 23.3262H29.1465C29.1442 23.3262 29.1465 23.3241 29.1523 23.3135C29.1638 23.2924 29.1637 23.2623 29.1523 23.2412L28.0225 21.1572L27.9521 21.0254V15.626C27.952 12.4234 25.5034 9.83923 22.5 9.83887ZM24.2002 23.75C23.9451 24.5115 23.2643 25.022 22.499 25.0254C21.7339 25.0219 21.0529 24.5114 20.7979 23.75H24.2002ZM16.2119 7.92871C16.4384 7.73825 16.8058 7.73809 17.0322 7.92871C17.2587 8.11948 17.2585 8.42926 17.0322 8.62012C15.462 9.94232 14.5977 11.7006 14.5977 13.5713C14.5977 13.8409 14.3376 14.0605 14.0176 14.0605C13.6975 14.0605 13.4375 13.841 13.4375 13.5713C13.4376 11.4401 14.4229 9.43532 16.2119 7.92871ZM27.9678 7.92871C28.1943 7.73797 28.5624 7.73792 28.7891 7.92871C30.5777 9.43575 31.5624 11.4403 31.5625 13.5713C31.5625 13.8409 31.3026 14.0605 30.9824 14.0605C30.6623 14.0605 30.4023 13.8409 30.4023 13.5713C30.4022 11.7008 29.5377 9.9429 27.9678 8.62012C27.7414 8.42929 27.7413 8.11948 27.9678 7.92871Z" fill="#1D2441"/>
</svg>
