<svg width="18" height="18" viewBox="0 0 18 18" fill="none" xmlns="http://www.w3.org/2000/svg">
<path d="M7.44727 0C11.5603 0 14.8945 3.33424 14.8945 7.44727C14.8945 9.40391 14.1383 11.1827 12.9043 12.5117L17.1738 16.7812C17.3975 17.005 17.3975 17.3681 17.1738 17.5918C16.9501 17.8153 16.587 17.8154 16.3633 17.5918L12.0615 13.29C10.7926 14.2935 9.19068 14.8945 7.44727 14.8945C3.33424 14.8945 0 11.5603 0 7.44727C7.18971e-05 3.33429 3.33429 7.18992e-05 7.44727 0ZM7.44727 1.14551C3.96707 1.14558 1.14558 3.96707 1.14551 7.44727C1.14551 10.9275 3.96702 13.749 7.44727 13.749C10.9276 13.749 13.749 10.9276 13.749 7.44727C13.749 3.96702 10.9275 1.14551 7.44727 1.14551Z" fill="#1D2441"/>
</svg>
