<svg width="42" height="42" viewBox="0 0 42 42" fill="none" xmlns="http://www.w3.org/2000/svg">
<rect x="4.5" y="5.37842" width="32" height="32" rx="16" fill="white" stroke="#EBEBEB"/>
<path d="M21.9775 12.3438C22.8744 12.3438 23.5984 13.0399 23.5986 13.9023C23.5986 14.43 23.8768 14.8928 24.3506 15.1592C24.819 15.4224 25.3852 15.4232 25.8584 15.1572C26.6329 14.7335 27.6225 14.9878 28.0674 15.7266L29.4434 18.0264C29.884 18.7713 29.6188 19.7237 28.8506 20.1514C28.3742 20.4152 28.0928 20.883 28.0928 21.4062C28.0928 21.9284 28.3737 22.3983 28.8447 22.6631L28.9688 22.7412C29.6475 23.2066 29.8613 24.097 29.4326 24.7881L28.0576 27.0859L27.9805 27.2041C27.5055 27.8605 26.5772 28.0661 25.8467 27.6543C25.3678 27.3892 24.8097 27.3897 24.3408 27.6533C23.8671 27.9197 23.5898 28.3825 23.5898 28.9102C23.5896 29.7725 22.8654 30.4686 21.9688 30.4688H19.21C18.3131 30.4688 17.5891 29.7726 17.5889 28.9102C17.5889 28.3825 17.3107 27.9197 16.8369 27.6533C16.3685 27.3901 15.8023 27.3893 15.3291 27.6553C14.5546 28.079 13.565 27.8247 13.1201 27.0859L11.7441 24.7861C11.3035 24.0412 11.5687 23.0888 12.3369 22.6611C12.8133 22.3973 13.0947 21.9295 13.0947 21.4062C13.0947 20.8841 12.8138 20.4142 12.3428 20.1494C11.5669 19.7118 11.3011 18.7561 11.7549 18.0244L13.1279 15.7285C13.5718 14.9782 14.5782 14.7208 15.3408 15.1582C15.8197 15.4233 16.3778 15.4228 16.8467 15.1592C17.3204 14.8928 17.5977 14.43 17.5977 13.9023C17.5979 13.04 18.3221 12.3439 19.2188 12.3438H21.9775ZM19.2119 13.25C18.8368 13.2501 18.5353 13.5383 18.5352 13.8975C18.5352 14.7504 18.0764 15.5136 17.3086 15.9434C16.5412 16.3728 15.6148 16.372 14.832 15.9404C14.5188 15.7619 14.1008 15.8686 13.917 16.1777L12.5322 18.4834C12.3455 18.7831 12.4554 19.1779 12.7822 19.3613C13.5473 19.7896 14.0098 20.5594 14.0098 21.4062C14.0098 22.2561 13.5445 23.0258 12.7715 23.4521C12.4544 23.6279 12.343 24.0261 12.5264 24.335L13.9072 26.6338C14.0909 26.9372 14.5065 27.0432 14.8262 26.8691C15.594 26.4394 16.531 26.4395 17.2988 26.8691C18.0666 27.2989 18.5264 28.0621 18.5264 28.915C18.5265 29.2741 18.8271 29.5623 19.2021 29.5625H21.9756C22.3507 29.5624 22.6522 29.2742 22.6523 28.915C22.6523 28.0621 23.1111 27.2989 23.8789 26.8691C24.6463 26.4397 25.5719 26.4404 26.3516 26.8701C26.6741 27.0512 27.0858 26.9459 27.2695 26.6367L28.6553 24.3291C28.842 24.0294 28.7321 23.6346 28.4053 23.4512C27.6402 23.0229 27.1777 22.2531 27.1777 21.4062C27.1777 20.5564 27.643 19.7867 28.416 19.3604C28.7331 19.1846 28.8445 18.7864 28.6611 18.4775L27.2803 16.1787C27.0966 15.8753 26.681 15.7693 26.3613 15.9434C25.5935 16.3731 24.6565 16.373 23.8887 15.9434C23.1209 15.5136 22.6611 14.7504 22.6611 13.8975C22.661 13.5384 22.3604 13.2502 21.9854 13.25H19.2119ZM20.5938 18.1875C22.3673 18.1875 23.8125 19.6327 23.8125 21.4062C23.8125 23.1798 22.3673 24.625 20.5938 24.625C18.8202 24.625 17.375 23.1798 17.375 21.4062C17.375 19.6327 18.8202 18.1875 20.5938 18.1875ZM20.5938 19.1875C19.3725 19.1875 18.375 20.185 18.375 21.4062C18.375 22.6275 19.3725 23.625 20.5938 23.625C21.815 23.625 22.8125 22.6275 22.8125 21.4062C22.8125 20.185 21.815 19.1875 20.5938 19.1875Z" fill="black"/>
</svg>
